<svg width="374" height="132" viewBox="0 0 374 132" fill="none" xmlns="http://www.w3.org/2000/svg">
<path d="M303.194 71.4371L294.414 47.1875L367.825 33.2225L303.194 71.4371Z" fill="white" stroke="#3397FF" stroke-width="1.2629" stroke-linecap="round" stroke-linejoin="round"/>
<path d="M299.387 50.3179L303.192 71.4336L367.823 33.219L299.387 50.3179Z" fill="#ffc107" stroke="#3397FF" stroke-width="1.2629" stroke-linecap="round" stroke-linejoin="round"/>
<path d="M299.387 50.3198L310.261 60.6446L367.823 33.2209L299.387 50.3198Z" fill="white" stroke="#3397FF" stroke-width="1.2629" stroke-linecap="round" stroke-linejoin="round"/>
<path d="M294.413 47.1858L284.5 42.543L367.823 33.2208L294.413 47.1858Z" fill="white" stroke="#3397FF" stroke-width="1.2629" stroke-linecap="round" stroke-linejoin="round"/>
<path d="M327.872 61.9919L333.447 58.5908" stroke="#3397FF" stroke-linecap="round" stroke-linejoin="round"/>
<path d="M308.289 73.938L322.305 65.3858" stroke="#3397FF" stroke-linecap="round" stroke-linejoin="round"/>
<path d="M1 65.2668C53.3668 103.084 172.234 164.625 228.766 108.249C299.432 37.7785 195.477 -13.6997 144.668 4.79246C93.8586 23.2846 183.213 92.2543 286 70.7634" stroke="#3397FF" stroke-opacity="0.5" stroke-dasharray="5 5"/>
</svg>
