<svg xmlns="http://www.w3.org/2000/svg" width="24" height="24" viewBox="0 0 24 24"><path fill="none" stroke="currentColor" stroke-linecap="round" stroke-linejoin="round" stroke-width="1.5" d="M21 11.183V8.28c0-1.64 0-2.46-.404-2.995s-1.318-.794-3.145-1.314a25 25 0 0 1-3.229-1.173C13.023 2.266 12.424 2 12 2s-1.023.266-2.222.798c-.88.39-1.98.818-3.229 1.173c-1.827.52-2.74.78-3.145 1.314C3 5.82 3 6.64 3 8.28v2.903c0 5.625 5.063 9 7.594 10.336c.607.32.91.481 1.406.481s.799-.16 1.406-.48C15.937 20.182 21 16.807 21 11.182" color="currentColor"/></svg>