<svg xmlns="http://www.w3.org/2000/svg" width="24" height="24" viewBox="0 0 24 24"><path fill="currentColor" d="M12 3a7 7 0 0 0-7 7c0 2.862 1.782 5.623 3.738 7.762A26 26 0 0 0 12 20.758q.262-.201.615-.49a26 26 0 0 0 2.647-2.504C17.218 15.623 19 12.863 19 10a7 7 0 0 0-7-7m0 20.214l-.567-.39l-.003-.002l-.006-.005l-.02-.014l-.075-.053l-.27-.197a28 28 0 0 1-3.797-3.44C5.218 16.875 3 13.636 3 9.999a9 9 0 0 1 18 0c0 3.637-2.218 6.877-4.262 9.112a28 28 0 0 1-3.796 3.44a17 17 0 0 1-.345.251l-.021.014l-.006.005l-.002.001zM12 8a2 2 0 1 0 0 4a2 2 0 0 0 0-4m-4 2a4 4 0 1 1 8 0a4 4 0 0 1-8 0"/></svg>