<?xml version="1.0" encoding="UTF-8"?>
<!DOCTYPE svg PUBLIC "-//W3C//DTD SVG 1.1//EN" "http://www.w3.org/Graphics/SVG/1.1/DTD/svg11.dtd">
<!-- Creator: CorelDRAW -->
<svg xmlns="http://www.w3.org/2000/svg" xml:space="preserve" width="17.6112mm" height="17.6112mm" version="1.1" style="shape-rendering:geometricPrecision; text-rendering:geometricPrecision; image-rendering:optimizeQuality; fill-rule:evenodd; clip-rule:evenodd"
viewBox="0 0 63949.35 63949.35"
 xmlns:xlink="http://www.w3.org/1999/xlink"
 xmlns:xodm="http://www.corel.com/coreldraw/odm/2003">
 <defs>
  <style type="text/css">
   <![CDATA[
    .fil3 {fill:none}
    .fil1 {fill:#2F318B}
    .fil0 {fill:#33A3FF}
    .fil2 {fill:#FFB121}
   ]]>
  </style>
    <mask id="id0">
  <linearGradient id="id1" gradientUnits="userSpaceOnUse" x1="46953.74" y1="15560.07" x2="22936.8" y2="48017.31">
   <stop offset="0" style="stop-opacity:1; stop-color:white"/>
   <stop offset="0.419608" style="stop-opacity:0.501961; stop-color:white"/>
   <stop offset="1" style="stop-opacity:0; stop-color:white"/>
  </linearGradient>
     <rect style="fill:url(#id1)" x="1996.42" y="7734.04" width="54556.23" height="55779.21"/>
    </mask>
 </defs>
 <g id="Layer_x0020_1">
  <metadata id="CorelCorpID_0Corel-Layer"/>
  <g id="_105553240936000">
   <path class="fil0" d="M22769.28 38405.85c-5763.4,-693.92 -9264.58,3310.54 -14847.88,-11.26 -6312.44,-3755.36 -7652.34,-10997.38 -3675.11,-16604.64 752.02,-1060.3 2695.42,-3142.06 5726.73,-3991.02 3870.83,-1084.27 8693.03,-2673.27 13762.15,-4185.66 7662.87,-2285.82 14763.63,-4333.08 18094.87,-5346.54 1570.85,-469.15 5641.76,-1485.51 9959.59,1706.29l0 -0.36 9.08 6.9 9.08 6.9 0 0c4314.56,3195.8 4532.8,7385.81 4543.69,9025.29 4.36,3481.93 122.73,10871.01 177.2,18867.59 35.59,5289.9 -73.71,10365.92 21.06,14384.54 74.08,3147.14 -1348.26,5614.16 -2142.39,6643.24 -4199.45,5443.13 -11517,6278.67 -16953.59,1340.27 -4809.13,-4368.3 -1942.68,-8912.72 -4351.24,-14194.63 -1868.24,-4097.06 -5841.83,-7106.57 -10333.24,-7646.89z"/>
   <path class="fil1" style="mask:url(#id0)" d="M22769.28 38405.85c-5763.4,-693.92 -9264.58,3310.54 -14847.88,-11.26 -6312.44,-3755.36 -7652.34,-10997.38 -3675.11,-16604.64 752.02,-1060.3 2695.42,-3142.06 5726.73,-3991.02 3870.83,-1084.27 8693.03,-2673.27 13762.15,-4185.66 7662.87,-2285.82 14763.63,-4333.08 18094.87,-5346.54 1570.85,-469.15 5641.76,-1485.51 9959.59,1706.29l0 -0.36 9.08 6.9 9.08 6.9 0 0c4314.56,3195.8 4532.8,7385.81 4543.69,9025.29 4.36,3481.93 122.73,10871.01 177.2,18867.59 35.59,5289.9 -73.71,10365.92 21.06,14384.54 74.08,3147.14 -1348.26,5614.16 -2142.39,6643.24 -4199.45,5443.13 -11517,6278.67 -16953.59,1340.27 -4809.13,-4368.3 -1942.68,-8912.72 -4351.24,-14194.63 -1868.24,-4097.06 -5841.83,-7106.57 -10333.24,-7646.89z"/>
   <path class="fil0" d="M28169.57 31107.55c-5763.4,-693.55 -9264.22,3310.91 -14847.88,-10.89 -6312.07,-3755.36 -7652.34,-10997.38 -3675.11,-16605 752.02,-1060.3 2695.42,-3141.69 5726.73,-3991.02 3870.83,-1084.27 8693.03,-2672.91 13762.15,-4185.29 7662.87,-2286.19 14764,-4333.08 18094.87,-5346.91 1570.85,-469.15 5641.76,-1485.51 9959.59,1706.29l0 0 9.08 6.9 9.08 6.54 0 0c4314.93,3196.16 4533.16,7386.17 4543.69,9025.65 4.36,3481.93 123.1,10871.01 177.2,18867.22 35.59,5289.9 -73.71,10365.92 21.06,14384.54 74.08,3147.14 -1348.26,5614.52 -2142.03,6643.6 -4199.82,5442.77 -11517,6278.67 -16953.96,1339.9 -4809.13,-4367.94 -1942.68,-8912.72 -4351.24,-14194.63 -1868.24,-4097.06 -5841.83,-7106.21 -10333.24,-7646.89z"/>
   <path class="fil2" d="M19178.42 40544.61c6211.49,-928.13 11999.58,3354.84 12928.07,9566.33 301.39,2018.57 52.65,3991.75 -633.64,5768.85l-17625.72 -13042.46c1498.22,-1175.77 3312.72,-1990.97 5331.29,-2292.72z"/>
  </g>
  <rect class="fil3" x="-0.21" width="63949.35" height="63949.35"/>
 </g>
</svg>
